<svg xmlns="http://www.w3.org/2000/svg" xmlns:xlink="http://www.w3.org/1999/xlink" width="1536" zoomAndPan="magnify" viewBox="0 0 1152 360.749986" height="481" preserveAspectRatio="xMidYMid meet" version="1.0"><defs><g/><clipPath id="c783f77e8d"><path d="M 23.566406 37 L 326.355469 37 L 326.355469 342.585938 L 23.566406 342.585938 Z M 23.566406 37 " clip-rule="nonzero"/></clipPath></defs><g clip-path="url(#c783f77e8d)"><path fill="#feac02" d="M 132.222656 283.042969 L 207.402344 257.972656 L 132.324219 257.972656 C 129.058594 257.972656 126.414062 255.328125 126.414062 252.058594 C 126.414062 248.789062 129.058594 246.144531 132.324219 246.144531 L 212.023438 246.144531 C 217.460938 246.144531 222.050781 250.050781 222.949219 255.425781 C 223.851562 260.84375 220.710938 266.023438 215.488281 267.746094 L 135.847656 294.304688 C 134.539062 294.703125 133.40625 294.871094 132.320312 294.871094 C 129.054688 294.871094 126.410156 292.222656 126.410156 288.957031 C 126.414062 285.722656 129.011719 283.09375 132.222656 283.042969 Z M 214.804688 317.605469 C 214.679688 317.738281 201.394531 330.644531 175.53125 330.644531 C 153.4375 330.644531 140.535156 321.257812 137.125 318.417969 L 215.578125 292.273438 C 218.671875 291.25 220.347656 287.898438 219.320312 284.796875 C 218.285156 281.695312 214.941406 280.046875 211.835938 281.0625 L 132.199219 307.597656 C 128.546875 308.800781 125.75 311.863281 124.886719 315.566406 C 124.007812 319.273438 125.140625 323.253906 127.820312 325.9375 C 128.488281 326.613281 144.554688 342.46875 175.53125 342.46875 C 206.464844 342.46875 222.53125 326.613281 223.199219 325.9375 C 225.488281 323.621094 225.464844 319.898438 223.167969 317.597656 C 220.859375 315.296875 217.117188 315.304688 214.804688 317.605469 Z M 174.773438 49.53125 C 124.726562 49.53125 84 90.230469 84 140.261719 C 84 165.546875 97.15625 185.101562 108.855469 202.503906 C 116.90625 214.417969 123.847656 224.707031 123.847656 233.25 C 123.847656 236.519531 126.496094 239.164062 129.761719 239.164062 C 133.027344 239.164062 135.675781 236.515625 135.675781 233.25 C 135.675781 221.085938 127.785156 209.402344 118.582031 195.757812 C 107.90625 179.90625 95.828125 161.9375 95.828125 140.261719 C 95.828125 96.753906 131.242188 61.355469 174.773438 61.355469 C 218.285156 61.355469 253.671875 96.753906 253.671875 140.261719 C 253.671875 161.972656 241.570312 179.949219 230.898438 195.804688 C 221.753906 209.351562 213.847656 221.054688 213.847656 233.25 C 213.847656 236.519531 216.496094 239.164062 219.761719 239.164062 C 223.027344 239.164062 225.675781 236.515625 225.675781 233.25 C 225.675781 224.667969 232.640625 214.363281 240.703125 202.414062 C 252.324219 185.152344 265.5 165.589844 265.5 140.261719 C 265.5 90.230469 224.796875 49.53125 174.773438 49.53125 Z M 179.136719 87.773438 C 179.136719 84.5 176.492188 81.859375 173.226562 81.859375 C 141.851562 81.859375 116.339844 107.378906 116.339844 138.75 C 116.339844 142.019531 118.988281 144.664062 122.253906 144.664062 C 125.523438 144.664062 128.167969 142.019531 128.167969 138.75 C 128.167969 113.898438 148.382812 93.6875 173.226562 93.6875 C 176.492188 93.683594 179.136719 91.042969 179.136719 87.773438 Z M 72.863281 140.261719 C 72.863281 136.992188 70.21875 134.351562 66.953125 134.351562 L 29.316406 134.351562 C 26.046875 134.351562 23.40625 136.992188 23.40625 140.261719 C 23.40625 143.535156 26.046875 146.175781 29.316406 146.175781 L 66.953125 146.175781 C 70.21875 146.175781 72.863281 143.535156 72.863281 140.261719 Z M 320.195312 134.351562 L 282.550781 134.351562 C 279.277344 134.351562 276.636719 136.992188 276.636719 140.261719 C 276.636719 143.535156 279.277344 146.175781 282.550781 146.175781 L 320.195312 146.175781 C 323.464844 146.175781 326.105469 143.53125 326.105469 140.261719 C 326.105469 136.992188 323.460938 134.351562 320.195312 134.351562 Z M 89.886719 70.152344 C 90.941406 70.914062 92.152344 71.277344 93.367188 71.277344 C 95.191406 71.277344 96.992188 70.433594 98.148438 68.839844 C 100.066406 66.199219 99.488281 62.5 96.847656 60.574219 L 66.398438 38.460938 C 63.761719 36.550781 60.054688 37.113281 58.140625 39.773438 C 56.222656 42.417969 56.800781 46.113281 59.449219 48.035156 Z M 89.886719 210.40625 L 59.441406 232.523438 C 56.792969 234.445312 56.21875 238.140625 58.132812 240.789062 C 59.289062 242.382812 61.089844 243.226562 62.914062 243.226562 C 64.128906 243.226562 65.34375 242.859375 66.390625 242.097656 L 96.839844 219.984375 C 99.484375 218.0625 100.058594 214.367188 98.140625 211.71875 C 96.21875 209.058594 92.523438 208.503906 89.886719 210.40625 Z M 256.144531 71.277344 C 257.359375 71.277344 258.570312 70.917969 259.625 70.152344 L 290.070312 48.039062 C 292.71875 46.117188 293.292969 42.421875 291.378906 39.773438 C 289.460938 37.117188 285.753906 36.554688 283.121094 38.464844 L 252.671875 60.578125 C 250.027344 62.503906 249.453125 66.199219 251.367188 68.84375 C 252.519531 70.433594 254.320312 71.277344 256.144531 71.277344 Z M 259.625 210.40625 C 257.003906 208.5 253.292969 209.058594 251.367188 211.71875 C 249.449219 214.363281 250.027344 218.0625 252.671875 219.984375 L 283.121094 242.097656 C 284.167969 242.859375 285.382812 243.226562 286.597656 243.226562 C 288.421875 243.226562 290.222656 242.382812 291.378906 240.789062 C 293.296875 238.140625 292.71875 234.445312 290.070312 232.523438 Z M 259.625 210.40625 " fill-opacity="1" fill-rule="nonzero"/></g><g fill="#feac02" fill-opacity="1"><g transform="translate(114.109693, 173.460991)"><g><path d="M 8.890625 0.5625 C 6.867188 0.5625 5.164062 -0.109375 3.78125 -1.453125 C 2.394531 -2.796875 1.703125 -4.5 1.703125 -6.5625 C 1.703125 -8.664062 2.382812 -10.367188 3.75 -11.671875 C 5.113281 -12.972656 6.828125 -13.625 8.890625 -13.625 C 10.992188 -13.625 12.71875 -12.972656 14.0625 -11.671875 C 15.40625 -10.367188 16.078125 -8.664062 16.078125 -6.5625 C 16.078125 -4.5 15.394531 -2.796875 14.03125 -1.453125 C 12.664062 -0.109375 10.953125 0.5625 8.890625 0.5625 Z M 8.890625 0.5625 "/></g></g></g><g fill="#feac02" fill-opacity="1"><g transform="translate(131.952915, 173.460991)"><g><path d="M 18.421875 -34.75 C 24.085938 -34.75 28.410156 -33.453125 31.390625 -30.859375 C 34.378906 -28.273438 35.875 -24.316406 35.875 -18.984375 L 35.875 0 L 24.71875 0 L 24.71875 -4.421875 C 23 -1.097656 19.632812 0.5625 14.625 0.5625 C 11.976562 0.5625 9.6875 0.101562 7.75 -0.8125 C 5.820312 -1.738281 4.363281 -2.988281 3.375 -4.5625 C 2.382812 -6.144531 1.890625 -7.945312 1.890625 -9.96875 C 1.890625 -13.195312 3.128906 -15.707031 5.609375 -17.5 C 8.085938 -19.289062 11.914062 -20.1875 17.09375 -20.1875 L 23.90625 -20.1875 C 23.6875 -23.800781 21.269531 -25.609375 16.65625 -25.609375 C 15.007812 -25.609375 13.34375 -25.34375 11.65625 -24.8125 C 9.976562 -24.289062 8.550781 -23.566406 7.375 -22.640625 L 3.34375 -30.78125 C 5.238281 -32.039062 7.539062 -33.015625 10.25 -33.703125 C 12.957031 -34.398438 15.679688 -34.75 18.421875 -34.75 Z M 17.96875 -7 C 19.351562 -7 20.570312 -7.332031 21.625 -8 C 22.675781 -8.675781 23.4375 -9.664062 23.90625 -10.96875 L 23.90625 -13.9375 L 18.734375 -13.9375 C 15.242188 -13.9375 13.5 -12.78125 13.5 -10.46875 C 13.5 -9.414062 13.894531 -8.570312 14.6875 -7.9375 C 15.488281 -7.3125 16.582031 -7 17.96875 -7 Z M 17.96875 -7 "/></g></g></g><g fill="#feac02" fill-opacity="1"><g transform="translate(171.548438, 173.460991)"><g><path d="M 40.609375 -34.1875 L 40.609375 -6.25 C 40.609375 0.101562 38.882812 4.863281 35.4375 8.03125 C 31.988281 11.207031 27.03125 12.796875 20.5625 12.796875 C 17.195312 12.796875 14.039062 12.414062 11.09375 11.65625 C 8.15625 10.90625 5.65625 9.796875 3.59375 8.328125 L 7.953125 -0.0625 C 9.335938 1.070312 11.085938 1.960938 13.203125 2.609375 C 15.328125 3.265625 17.421875 3.59375 19.484375 3.59375 C 22.640625 3.59375 24.953125 2.898438 26.421875 1.515625 C 27.890625 0.128906 28.625 -1.929688 28.625 -4.671875 L 28.625 -5.796875 C 26.3125 -3.109375 22.929688 -1.765625 18.484375 -1.765625 C 15.453125 -1.765625 12.65625 -2.445312 10.09375 -3.8125 C 7.53125 -5.175781 5.488281 -7.109375 3.96875 -9.609375 C 2.457031 -12.117188 1.703125 -15.007812 1.703125 -18.28125 C 1.703125 -21.519531 2.457031 -24.390625 3.96875 -26.890625 C 5.488281 -29.390625 7.53125 -31.320312 10.09375 -32.6875 C 12.65625 -34.0625 15.453125 -34.75 18.484375 -34.75 C 23.359375 -34.75 26.929688 -33.171875 29.203125 -30.015625 L 29.203125 -34.1875 Z M 21.3125 -11.28125 C 23.457031 -11.28125 25.234375 -11.929688 26.640625 -13.234375 C 28.046875 -14.546875 28.75 -16.226562 28.75 -18.28125 C 28.75 -20.34375 28.054688 -22.015625 26.671875 -23.296875 C 25.285156 -24.578125 23.5 -25.21875 21.3125 -25.21875 C 19.125 -25.21875 17.328125 -24.578125 15.921875 -23.296875 C 14.515625 -22.015625 13.8125 -20.34375 13.8125 -18.28125 C 13.8125 -16.226562 14.523438 -14.546875 15.953125 -13.234375 C 17.378906 -11.929688 19.164062 -11.28125 21.3125 -11.28125 Z M 21.3125 -11.28125 "/></g></g></g><g fill="#feac02" fill-opacity="1"><g transform="translate(215.998846, 173.460991)"><g><path d="M 3.84375 -34.1875 L 15.828125 -34.1875 L 15.828125 0 L 3.84375 0 Z M 9.828125 -37.96875 C 7.640625 -37.96875 5.875 -38.578125 4.53125 -39.796875 C 3.1875 -41.015625 2.515625 -42.523438 2.515625 -44.328125 C 2.515625 -46.140625 3.1875 -47.65625 4.53125 -48.875 C 5.875 -50.09375 7.640625 -50.703125 9.828125 -50.703125 C 12.015625 -50.703125 13.78125 -50.125 15.125 -48.96875 C 16.46875 -47.8125 17.140625 -46.328125 17.140625 -44.515625 C 17.140625 -42.628906 16.46875 -41.066406 15.125 -39.828125 C 13.78125 -38.585938 12.015625 -37.96875 9.828125 -37.96875 Z M 9.828125 -37.96875 "/></g></g></g><g fill="#d9d9d9" fill-opacity="1"><g transform="translate(817.606747, 245.700732)"><g><path d="M 6.171875 -75.0625 L 25.390625 -75.0625 L 25.390625 0 L 6.171875 0 Z M 6.171875 -75.0625 "/></g></g></g><g fill="#d9d9d9" fill-opacity="1"><g transform="translate(849.256923, 245.700732)"><g><path d="M 62.21875 -27.3125 C 62.21875 -27.175781 62.113281 -25.59375 61.90625 -22.5625 L 22.046875 -22.5625 C 22.859375 -19.726562 24.425781 -17.550781 26.75 -16.03125 C 29.082031 -14.507812 32 -13.75 35.5 -13.75 C 38.132812 -13.75 40.410156 -14.117188 42.328125 -14.859375 C 44.253906 -15.609375 46.195312 -16.828125 48.15625 -18.515625 L 58.265625 -7.984375 C 52.941406 -2.054688 45.15625 0.90625 34.90625 0.90625 C 28.488281 0.90625 22.851562 -0.304688 18 -2.734375 C 13.144531 -5.160156 9.382812 -8.53125 6.71875 -12.84375 C 4.0625 -17.164062 2.734375 -22.054688 2.734375 -27.515625 C 2.734375 -32.910156 4.03125 -37.75 6.625 -42.03125 C 9.21875 -46.3125 12.804688 -49.664062 17.390625 -52.09375 C 21.984375 -54.519531 27.144531 -55.734375 32.875 -55.734375 C 38.332031 -55.734375 43.285156 -54.601562 47.734375 -52.34375 C 52.191406 -50.082031 55.71875 -46.8125 58.3125 -42.53125 C 60.914062 -38.25 62.21875 -33.175781 62.21875 -27.3125 Z M 32.984375 -42.078125 C 30.015625 -42.078125 27.535156 -41.234375 25.546875 -39.546875 C 23.554688 -37.859375 22.289062 -35.566406 21.75 -32.671875 L 44.203125 -32.671875 C 43.660156 -35.566406 42.394531 -37.859375 40.40625 -39.546875 C 38.414062 -41.234375 35.941406 -42.078125 32.984375 -42.078125 Z M 32.984375 -42.078125 "/></g></g></g><g fill="#d9d9d9" fill-opacity="1"><g transform="translate(914.17516, 245.700732)"><g><path d="M 65.140625 -54.828125 L 65.140625 -10.015625 C 65.140625 0.171875 62.375 7.804688 56.84375 12.890625 C 51.320312 17.984375 43.367188 20.53125 32.984375 20.53125 C 27.585938 20.53125 22.523438 19.921875 17.796875 18.703125 C 13.078125 17.492188 9.066406 15.710938 5.765625 13.359375 L 12.75 -0.09375 C 14.96875 1.71875 17.78125 3.144531 21.1875 4.1875 C 24.59375 5.238281 27.945312 5.765625 31.25 5.765625 C 36.3125 5.765625 40.019531 4.648438 42.375 2.421875 C 44.738281 0.203125 45.921875 -3.097656 45.921875 -7.484375 L 45.921875 -9.3125 C 42.210938 -4.988281 36.785156 -2.828125 29.640625 -2.828125 C 24.785156 -2.828125 20.300781 -3.921875 16.1875 -6.109375 C 12.070312 -8.304688 8.800781 -11.410156 6.375 -15.421875 C 3.945312 -19.429688 2.734375 -24.066406 2.734375 -29.328125 C 2.734375 -34.523438 3.945312 -39.128906 6.375 -43.140625 C 8.800781 -47.148438 12.070312 -50.25 16.1875 -52.4375 C 20.300781 -54.632812 24.785156 -55.734375 29.640625 -55.734375 C 37.460938 -55.734375 43.191406 -53.207031 46.828125 -48.15625 L 46.828125 -54.828125 Z M 34.1875 -18.109375 C 37.625 -18.109375 40.472656 -19.148438 42.734375 -21.234375 C 44.992188 -23.328125 46.125 -26.023438 46.125 -29.328125 C 46.125 -32.640625 45.007812 -35.320312 42.78125 -37.375 C 40.5625 -39.4375 37.695312 -40.46875 34.1875 -40.46875 C 30.6875 -40.46875 27.804688 -39.4375 25.546875 -37.375 C 23.285156 -35.320312 22.15625 -32.640625 22.15625 -29.328125 C 22.15625 -26.023438 23.300781 -23.328125 25.59375 -21.234375 C 27.882812 -19.148438 30.75 -18.109375 34.1875 -18.109375 Z M 34.1875 -18.109375 "/></g></g></g><g fill="#d9d9d9" fill-opacity="1"><g transform="translate(985.463916, 245.700732)"><g><path d="M 6.171875 -54.828125 L 25.390625 -54.828125 L 25.390625 0 L 6.171875 0 Z M 15.78125 -60.890625 C 12.269531 -60.890625 9.4375 -61.867188 7.28125 -63.828125 C 5.125 -65.785156 4.046875 -68.210938 4.046875 -71.109375 C 4.046875 -74.015625 5.125 -76.441406 7.28125 -78.390625 C 9.4375 -80.347656 12.269531 -81.328125 15.78125 -81.328125 C 19.28125 -81.328125 22.109375 -80.398438 24.265625 -78.546875 C 26.429688 -76.691406 27.515625 -74.316406 27.515625 -71.421875 C 27.515625 -68.378906 26.429688 -65.863281 24.265625 -63.875 C 22.109375 -61.882812 19.28125 -60.890625 15.78125 -60.890625 Z M 15.78125 -60.890625 "/></g></g></g><g fill="#d9d9d9" fill-opacity="1"><g transform="translate(1017.114093, 245.700732)"><g><path d="M 26.09375 0.90625 C 21.507812 0.90625 16.988281 0.382812 12.53125 -0.65625 C 8.082031 -1.695312 4.515625 -3.0625 1.828125 -4.75 L 7.59375 -17.90625 C 10.082031 -16.351562 13.046875 -15.117188 16.484375 -14.203125 C 19.921875 -13.296875 23.328125 -12.84375 26.703125 -12.84375 C 29.804688 -12.84375 32.015625 -13.160156 33.328125 -13.796875 C 34.640625 -14.441406 35.296875 -15.375 35.296875 -16.59375 C 35.296875 -17.800781 34.503906 -18.65625 32.921875 -19.15625 C 31.335938 -19.664062 28.828125 -20.160156 25.390625 -20.640625 C 21.003906 -21.171875 17.273438 -21.875 14.203125 -22.75 C 11.140625 -23.632812 8.492188 -25.253906 6.265625 -27.609375 C 4.046875 -29.972656 2.9375 -33.28125 2.9375 -37.53125 C 2.9375 -41.039062 3.976562 -44.160156 6.0625 -46.890625 C 8.15625 -49.617188 11.207031 -51.773438 15.21875 -53.359375 C 19.238281 -54.941406 24.046875 -55.734375 29.640625 -55.734375 C 33.617188 -55.734375 37.5625 -55.328125 41.46875 -54.515625 C 45.382812 -53.710938 48.65625 -52.566406 51.28125 -51.078125 L 45.515625 -38.03125 C 40.660156 -40.726562 35.398438 -42.078125 29.734375 -42.078125 C 26.703125 -42.078125 24.476562 -41.722656 23.0625 -41.015625 C 21.644531 -40.304688 20.9375 -39.378906 20.9375 -38.234375 C 20.9375 -36.953125 21.710938 -36.054688 23.265625 -35.546875 C 24.816406 -35.046875 27.378906 -34.523438 30.953125 -33.984375 C 35.472656 -33.316406 39.21875 -32.539062 42.1875 -31.65625 C 45.15625 -30.78125 47.734375 -29.175781 49.921875 -26.84375 C 52.109375 -24.519531 53.203125 -21.269531 53.203125 -17.09375 C 53.203125 -13.65625 52.15625 -10.570312 50.0625 -7.84375 C 47.976562 -5.113281 44.894531 -2.972656 40.8125 -1.421875 C 36.738281 0.128906 31.832031 0.90625 26.09375 0.90625 Z M 26.09375 0.90625 "/></g></g></g><g fill="#d9d9d9" fill-opacity="1"><g transform="translate(334.907152, 245.682915)"><g><path d="M 34.671875 2.21875 C 26.796875 2.21875 20.15625 -0.398438 14.75 -5.640625 C 9.34375 -10.890625 6.640625 -17.53125 6.640625 -25.5625 C 6.640625 -33.757812 9.300781 -40.398438 14.625 -45.484375 C 19.957031 -50.566406 26.640625 -53.109375 34.671875 -53.109375 C 42.859375 -53.109375 49.570312 -50.566406 54.8125 -45.484375 C 60.0625 -40.398438 62.6875 -33.757812 62.6875 -25.5625 C 62.6875 -17.53125 60.023438 -10.890625 54.703125 -5.640625 C 49.378906 -0.398438 42.703125 2.21875 34.671875 2.21875 Z M 34.671875 2.21875 "/></g></g></g><g fill="#d9d9d9" fill-opacity="1"><g transform="translate(404.455151, 245.682915)"><g><path d="M 71.796875 -135.46875 C 93.921875 -135.46875 110.800781 -130.425781 122.4375 -120.34375 C 134.070312 -110.269531 139.890625 -94.820312 139.890625 -74 L 139.890625 0 L 96.375 0 L 96.375 -17.203125 C 89.65625 -4.253906 76.546875 2.21875 57.046875 2.21875 C 46.710938 2.21875 37.773438 0.414062 30.234375 -3.1875 C 22.703125 -6.800781 17.007812 -11.679688 13.15625 -17.828125 C 9.300781 -23.972656 7.375 -30.976562 7.375 -38.84375 C 7.375 -51.46875 12.207031 -61.257812 21.875 -68.21875 C 31.550781 -75.1875 46.46875 -78.671875 66.625 -78.671875 L 93.1875 -78.671875 C 92.363281 -92.765625 82.9375 -99.8125 64.90625 -99.8125 C 58.507812 -99.8125 52.035156 -98.785156 45.484375 -96.734375 C 38.929688 -94.691406 33.359375 -91.867188 28.765625 -88.265625 L 13.03125 -119.984375 C 20.40625 -124.898438 29.378906 -128.707031 39.953125 -131.40625 C 50.523438 -134.113281 61.140625 -135.46875 71.796875 -135.46875 Z M 70.0625 -27.296875 C 75.476562 -27.296875 80.234375 -28.601562 84.328125 -31.21875 C 88.421875 -33.84375 91.375 -37.695312 93.1875 -42.78125 L 93.1875 -54.328125 L 73.015625 -54.328125 C 59.410156 -54.328125 52.609375 -49.820312 52.609375 -40.8125 C 52.609375 -36.71875 54.164062 -33.441406 57.28125 -30.984375 C 60.394531 -28.523438 64.65625 -27.296875 70.0625 -27.296875 Z M 70.0625 -27.296875 "/></g></g></g><g fill="#d9d9d9" fill-opacity="1"><g transform="translate(558.787756, 245.682915)"><g><path d="M 158.328125 -133.25 L 158.328125 -24.34375 C 158.328125 0.40625 151.609375 18.96875 138.171875 31.34375 C 124.734375 43.71875 105.394531 49.90625 80.15625 49.90625 C 67.039062 49.90625 54.742188 48.429688 43.265625 45.484375 C 31.796875 42.535156 22.046875 38.191406 14.015625 32.453125 L 30.984375 -0.25 C 36.390625 4.175781 43.226562 7.660156 51.5 10.203125 C 59.78125 12.742188 67.9375 14.015625 75.96875 14.015625 C 88.257812 14.015625 97.273438 11.304688 103.015625 5.890625 C 108.753906 0.484375 111.625 -7.539062 111.625 -18.1875 L 111.625 -22.625 C 102.601562 -12.132812 89.40625 -6.890625 72.03125 -6.890625 C 60.226562 -6.890625 49.328125 -9.550781 39.328125 -14.875 C 29.335938 -20.195312 21.390625 -27.734375 15.484375 -37.484375 C 9.585938 -47.242188 6.640625 -58.515625 6.640625 -71.296875 C 6.640625 -83.921875 9.585938 -95.109375 15.484375 -104.859375 C 21.390625 -114.609375 29.335938 -122.144531 39.328125 -127.46875 C 49.328125 -132.800781 60.226562 -135.46875 72.03125 -135.46875 C 91.050781 -135.46875 104.984375 -129.320312 113.828125 -117.03125 L 113.828125 -133.25 Z M 83.09375 -44.015625 C 91.457031 -44.015625 98.382812 -46.550781 103.875 -51.625 C 109.363281 -56.707031 112.109375 -63.265625 112.109375 -71.296875 C 112.109375 -79.328125 109.40625 -85.84375 104 -90.84375 C 98.59375 -95.84375 91.625 -98.34375 83.09375 -98.34375 C 74.570312 -98.34375 67.566406 -95.84375 62.078125 -90.84375 C 56.585938 -85.84375 53.84375 -79.328125 53.84375 -71.296875 C 53.84375 -63.265625 56.628906 -56.707031 62.203125 -51.625 C 67.773438 -46.550781 74.738281 -44.015625 83.09375 -44.015625 Z M 83.09375 -44.015625 "/></g></g></g><g fill="#d9d9d9" fill-opacity="1"><g transform="translate(732.043276, 245.682915)"><g><path d="M 15 -133.25 L 61.703125 -133.25 L 61.703125 0 L 15 0 Z M 38.34375 -148 C 29.820312 -148 22.9375 -150.375 17.6875 -155.125 C 12.445312 -159.882812 9.828125 -165.789062 9.828125 -172.84375 C 9.828125 -179.882812 12.445312 -185.78125 17.6875 -190.53125 C 22.9375 -195.289062 29.820312 -197.671875 38.34375 -197.671875 C 46.875 -197.671875 53.757812 -195.414062 59 -190.90625 C 64.25 -186.40625 66.875 -180.628906 66.875 -173.578125 C 66.875 -166.203125 64.25 -160.09375 59 -155.25 C 53.757812 -150.414062 46.875 -148 38.34375 -148 Z M 38.34375 -148 "/></g></g></g><g fill="#d9d9d9" fill-opacity="1"><g transform="translate(821.788503, 149.319225)"><g><path d="M 3.203125 -28.234375 L 3.203125 -34.6875 L 12.71875 -34.6875 L 12.71875 -28.234375 Z M 3.203125 0 L 3.203125 -25.265625 L 12.71875 -25.265625 L 12.71875 0 Z M 3.203125 0 "/></g></g></g><g fill="#d9d9d9" fill-opacity="1"><g transform="translate(846.043044, 149.319225)"><g><path d="M 20.28125 -25.828125 C 23.21875 -25.828125 25.421875 -25.015625 26.890625 -23.390625 C 28.359375 -21.765625 29.09375 -19.421875 29.09375 -16.359375 L 29.09375 0 L 19.5625 0 L 19.5625 -15.21875 C 19.5625 -16.300781 19.28125 -17.164062 18.71875 -17.8125 C 18.164062 -18.46875 17.378906 -18.796875 16.359375 -18.796875 C 15.179688 -18.796875 14.222656 -18.410156 13.484375 -17.640625 C 12.753906 -16.878906 12.390625 -15.941406 12.390625 -14.828125 L 12.390625 0 L 2.875 0 L 2.875 -25.265625 L 10.671875 -25.265625 L 11.296875 -21.4375 C 12.285156 -22.769531 13.582031 -23.832031 15.1875 -24.625 C 16.800781 -25.425781 18.5 -25.828125 20.28125 -25.828125 Z M 20.28125 -25.828125 "/></g></g></g><g fill="#d9d9d9" fill-opacity="1"><g transform="translate(886.274134, 149.319225)"><g><path d="M 15.9375 -25.828125 C 20.363281 -25.828125 23.84375 -24.703125 26.375 -22.453125 C 28.914062 -20.210938 30.1875 -16.9375 30.1875 -12.625 C 30.1875 -8.320312 28.914062 -5.046875 26.375 -2.796875 C 23.84375 -0.546875 20.363281 0.578125 15.9375 0.578125 C 11.5 0.578125 8.019531 -0.535156 5.5 -2.765625 C 2.976562 -5.003906 1.71875 -8.289062 1.71875 -12.625 C 1.71875 -16.96875 2.976562 -20.253906 5.5 -22.484375 C 8.019531 -24.710938 11.5 -25.828125 15.9375 -25.828125 Z M 15.9375 -19.375 C 12.8125 -19.375 11.25 -17.570312 11.25 -13.96875 L 11.25 -11.25 C 11.25 -7.675781 12.8125 -5.890625 15.9375 -5.890625 C 19.09375 -5.890625 20.671875 -7.675781 20.671875 -11.25 L 20.671875 -13.96875 C 20.671875 -17.570312 19.09375 -19.375 15.9375 -19.375 Z M 15.9375 -19.375 "/></g></g></g><g fill="#d9d9d9" fill-opacity="1"><g transform="translate(926.505229, 149.319225)"><g><path d="M 9.5625 0 L 0 -25.265625 L 10.234375 -25.265625 L 14.875 -9.515625 L 15.21875 -9.515625 L 19.859375 -25.265625 L 29.234375 -25.265625 L 19.5625 0 Z M 9.5625 0 "/></g></g></g><g fill="#d9d9d9" fill-opacity="1"><g transform="translate(964.057627, 149.319225)"><g><path d="M 15.359375 -25.828125 C 19.210938 -25.828125 22.351562 -25.179688 24.78125 -23.890625 C 27.207031 -22.597656 28.421875 -20.503906 28.421875 -17.609375 L 28.421875 -7.75 C 28.421875 -7.207031 28.546875 -6.757812 28.796875 -6.40625 C 29.054688 -6.0625 29.441406 -5.890625 29.953125 -5.890625 L 31.671875 -5.890625 L 31.671875 -0.375 C 31.578125 -0.3125 31.328125 -0.207031 30.921875 -0.0625 C 30.523438 0.0703125 29.957031 0.210938 29.21875 0.359375 C 28.488281 0.503906 27.648438 0.578125 26.703125 0.578125 C 24.847656 0.578125 23.320312 0.300781 22.125 -0.25 C 20.925781 -0.8125 20.101562 -1.585938 19.65625 -2.578125 C 18.445312 -1.617188 17.09375 -0.851562 15.59375 -0.28125 C 14.09375 0.289062 12.335938 0.578125 10.328125 0.578125 C 4.398438 0.578125 1.4375 -1.78125 1.4375 -6.5 C 1.4375 -8.957031 2.097656 -10.832031 3.421875 -12.125 C 4.742188 -13.414062 6.648438 -14.300781 9.140625 -14.78125 C 11.628906 -15.257812 14.878906 -15.5 18.890625 -15.5 L 18.890625 -16.75 C 18.890625 -17.738281 18.546875 -18.488281 17.859375 -19 C 17.179688 -19.507812 16.300781 -19.765625 15.21875 -19.765625 C 14.226562 -19.765625 13.375 -19.585938 12.65625 -19.234375 C 11.9375 -18.878906 11.578125 -18.320312 11.578125 -17.5625 L 11.578125 -17.375 L 2.203125 -17.375 C 2.171875 -17.53125 2.15625 -17.75 2.15625 -18.03125 C 2.15625 -20.425781 3.296875 -22.320312 5.578125 -23.71875 C 7.859375 -25.125 11.117188 -25.828125 15.359375 -25.828125 Z M 18.890625 -11 C 16.179688 -11 14.179688 -10.703125 12.890625 -10.109375 C 11.597656 -9.523438 10.953125 -8.738281 10.953125 -7.75 C 10.953125 -6.15625 12.035156 -5.359375 14.203125 -5.359375 C 15.453125 -5.359375 16.546875 -5.691406 17.484375 -6.359375 C 18.421875 -7.035156 18.890625 -7.863281 18.890625 -8.84375 Z M 18.890625 -11 "/></g></g></g><g fill="#d9d9d9" fill-opacity="1"><g transform="translate(1004.288713, 149.319225)"><g><path d="M 15.9375 -25.828125 C 20.082031 -25.828125 23.4375 -24.941406 26 -23.171875 C 28.570312 -21.410156 29.859375 -18.710938 29.859375 -15.078125 L 20.625 -15.078125 C 20.625 -17.941406 19.0625 -19.375 15.9375 -19.375 C 12.8125 -19.375 11.25 -17.570312 11.25 -13.96875 L 11.25 -11.25 C 11.25 -7.675781 12.875 -5.890625 16.125 -5.890625 C 19.375 -5.890625 21 -7.351562 21 -10.28125 L 29.859375 -10.28125 C 29.859375 -6.875 28.722656 -4.273438 26.453125 -2.484375 C 24.191406 -0.703125 21.195312 0.300781 17.46875 0.53125 L 17.375 1.390625 C 20.332031 1.671875 21.8125 3.085938 21.8125 5.640625 C 21.8125 7.265625 21.226562 8.410156 20.0625 9.078125 C 18.90625 9.753906 17.59375 10.09375 16.125 10.09375 C 15.039062 10.09375 13.9375 10.019531 12.8125 9.875 C 11.695312 9.738281 10.789062 9.554688 10.09375 9.328125 L 10.09375 6.75 C 10.445312 6.78125 11.210938 6.847656 12.390625 6.953125 C 13.566406 7.066406 14.679688 7.125 15.734375 7.125 C 17.015625 7.125 17.65625 6.628906 17.65625 5.640625 C 17.65625 4.617188 17.050781 4.109375 15.84375 4.109375 L 13.96875 4.109375 L 14.546875 0.53125 C 10.523438 0.269531 7.378906 -0.960938 5.109375 -3.171875 C 2.847656 -5.390625 1.71875 -8.539062 1.71875 -12.625 C 1.71875 -16.96875 2.976562 -20.253906 5.5 -22.484375 C 8.019531 -24.710938 11.5 -25.828125 15.9375 -25.828125 Z M 15.9375 -25.828125 "/></g></g></g><g fill="#d9d9d9" fill-opacity="1"><g transform="translate(1044.519798, 149.319225)"><g><path d="M 26.59375 -34.6875 C 26.59375 -33.539062 26.304688 -32.441406 25.734375 -31.390625 C 25.160156 -30.335938 24.363281 -29.484375 23.34375 -28.828125 C 22.320312 -28.171875 21.175781 -27.84375 19.90625 -27.84375 C 19.195312 -27.84375 18.515625 -27.921875 17.859375 -28.078125 C 17.210938 -28.242188 16.378906 -28.5 15.359375 -28.84375 C 14.554688 -29.132812 13.867188 -29.359375 13.296875 -29.515625 C 12.722656 -29.679688 12.164062 -29.765625 11.625 -29.765625 C 11.019531 -29.765625 10.507812 -29.585938 10.09375 -29.234375 C 9.675781 -28.878906 9.375 -28.414062 9.1875 -27.84375 L 5.3125 -27.84375 C 5.3125 -28.988281 5.597656 -30.085938 6.171875 -31.140625 C 6.742188 -32.191406 7.539062 -33.046875 8.5625 -33.703125 C 9.582031 -34.359375 10.734375 -34.6875 12.015625 -34.6875 C 12.710938 -34.6875 13.382812 -34.601562 14.03125 -34.4375 C 14.6875 -34.28125 15.523438 -34.03125 16.546875 -33.6875 C 17.347656 -33.394531 18.035156 -33.164062 18.609375 -33 C 19.179688 -32.84375 19.738281 -32.765625 20.28125 -32.765625 C 20.882812 -32.765625 21.394531 -32.941406 21.8125 -33.296875 C 22.226562 -33.648438 22.53125 -34.113281 22.71875 -34.6875 Z M 15.359375 -25.828125 C 19.210938 -25.828125 22.351562 -25.179688 24.78125 -23.890625 C 27.207031 -22.597656 28.421875 -20.503906 28.421875 -17.609375 L 28.421875 -7.75 C 28.421875 -7.207031 28.546875 -6.757812 28.796875 -6.40625 C 29.054688 -6.0625 29.441406 -5.890625 29.953125 -5.890625 L 31.671875 -5.890625 L 31.671875 -0.375 C 31.578125 -0.3125 31.328125 -0.207031 30.921875 -0.0625 C 30.523438 0.0703125 29.957031 0.210938 29.21875 0.359375 C 28.488281 0.503906 27.648438 0.578125 26.703125 0.578125 C 24.847656 0.578125 23.320312 0.300781 22.125 -0.25 C 20.925781 -0.8125 20.101562 -1.585938 19.65625 -2.578125 C 18.445312 -1.617188 17.09375 -0.851562 15.59375 -0.28125 C 14.09375 0.289062 12.335938 0.578125 10.328125 0.578125 C 4.398438 0.578125 1.4375 -1.78125 1.4375 -6.5 C 1.4375 -8.957031 2.097656 -10.832031 3.421875 -12.125 C 4.742188 -13.414062 6.648438 -14.300781 9.140625 -14.78125 C 11.628906 -15.257812 14.878906 -15.5 18.890625 -15.5 L 18.890625 -16.75 C 18.890625 -17.738281 18.546875 -18.488281 17.859375 -19 C 17.179688 -19.507812 16.300781 -19.765625 15.21875 -19.765625 C 14.226562 -19.765625 13.375 -19.585938 12.65625 -19.234375 C 11.9375 -18.878906 11.578125 -18.320312 11.578125 -17.5625 L 11.578125 -17.375 L 2.203125 -17.375 C 2.171875 -17.53125 2.15625 -17.75 2.15625 -18.03125 C 2.15625 -20.425781 3.296875 -22.320312 5.578125 -23.71875 C 7.859375 -25.125 11.117188 -25.828125 15.359375 -25.828125 Z M 18.890625 -11 C 16.179688 -11 14.179688 -10.703125 12.890625 -10.109375 C 11.597656 -9.523438 10.953125 -8.738281 10.953125 -7.75 C 10.953125 -6.15625 12.035156 -5.359375 14.203125 -5.359375 C 15.453125 -5.359375 16.546875 -5.691406 17.484375 -6.359375 C 18.421875 -7.035156 18.890625 -7.863281 18.890625 -8.84375 Z M 18.890625 -11 "/></g></g></g><g fill="#d9d9d9" fill-opacity="1"><g transform="translate(1084.750883, 149.319225)"><g><path d="M 15.9375 -25.828125 C 20.363281 -25.828125 23.84375 -24.703125 26.375 -22.453125 C 28.914062 -20.210938 30.1875 -16.9375 30.1875 -12.625 C 30.1875 -8.320312 28.914062 -5.046875 26.375 -2.796875 C 23.84375 -0.546875 20.363281 0.578125 15.9375 0.578125 C 11.5 0.578125 8.019531 -0.535156 5.5 -2.765625 C 2.976562 -5.003906 1.71875 -8.289062 1.71875 -12.625 C 1.71875 -16.96875 2.976562 -20.253906 5.5 -22.484375 C 8.019531 -24.710938 11.5 -25.828125 15.9375 -25.828125 Z M 15.9375 -19.375 C 12.8125 -19.375 11.25 -17.570312 11.25 -13.96875 L 11.25 -11.25 C 11.25 -7.675781 12.8125 -5.890625 15.9375 -5.890625 C 19.09375 -5.890625 20.671875 -7.675781 20.671875 -11.25 L 20.671875 -13.96875 C 20.671875 -17.570312 19.09375 -19.375 15.9375 -19.375 Z M 15.9375 -19.375 "/></g></g></g></svg>
