<svg xmlns="http://www.w3.org/2000/svg" xmlns:xlink="http://www.w3.org/1999/xlink" width="977" zoomAndPan="magnify" viewBox="0 0 732.75 721.499983" height="962" preserveAspectRatio="xMidYMid meet" version="1.0"><defs><g/><clipPath id="527a3ae4e5"><path d="M 183.214844 73 L 549.472656 73 L 549.472656 442.914062 L 183.214844 442.914062 Z M 183.214844 73 " clip-rule="nonzero"/></clipPath></defs><g fill="#d9d9d9" fill-opacity="1"><g transform="translate(390.512045, 566.807668)"><g><path d="M 5.6875 -69.171875 L 23.390625 -69.171875 L 23.390625 0 L 5.6875 0 Z M 5.6875 -69.171875 "/></g></g></g><g fill="#d9d9d9" fill-opacity="1"><g transform="translate(419.680618, 566.807668)"><g><path d="M 57.328125 -25.171875 C 57.328125 -25.046875 57.234375 -23.582031 57.046875 -20.78125 L 20.328125 -20.78125 C 21.066406 -18.175781 22.507812 -16.171875 24.65625 -14.765625 C 26.800781 -13.367188 29.488281 -12.671875 32.71875 -12.671875 C 35.144531 -12.671875 37.242188 -13.015625 39.015625 -13.703125 C 40.785156 -14.390625 42.570312 -15.507812 44.375 -17.0625 L 53.6875 -7.359375 C 48.78125 -1.890625 41.601562 0.84375 32.15625 0.84375 C 26.257812 0.84375 21.070312 -0.273438 16.59375 -2.515625 C 12.113281 -4.753906 8.644531 -7.863281 6.1875 -11.84375 C 3.738281 -15.820312 2.515625 -20.328125 2.515625 -25.359375 C 2.515625 -30.328125 3.707031 -34.785156 6.09375 -38.734375 C 8.488281 -42.679688 11.800781 -45.769531 16.03125 -48 C 20.257812 -50.238281 25.015625 -51.359375 30.296875 -51.359375 C 35.328125 -51.359375 39.894531 -50.316406 44 -48.234375 C 48.101562 -46.160156 51.347656 -43.148438 53.734375 -39.203125 C 56.128906 -35.253906 57.328125 -30.578125 57.328125 -25.171875 Z M 30.390625 -38.78125 C 27.648438 -38.78125 25.363281 -38.003906 23.53125 -36.453125 C 21.695312 -34.898438 20.535156 -32.785156 20.046875 -30.109375 L 40.734375 -30.109375 C 40.234375 -32.785156 39.066406 -34.898438 37.234375 -36.453125 C 35.398438 -38.003906 33.117188 -38.78125 30.390625 -38.78125 Z M 30.390625 -38.78125 "/></g></g></g><g fill="#d9d9d9" fill-opacity="1"><g transform="translate(479.508794, 566.807668)"><g><path d="M 60.03125 -50.53125 L 60.03125 -9.234375 C 60.03125 0.148438 57.484375 7.1875 52.390625 11.875 C 47.296875 16.570312 39.960938 18.921875 30.390625 18.921875 C 25.421875 18.921875 20.757812 18.359375 16.40625 17.234375 C 12.050781 16.117188 8.351562 14.476562 5.3125 12.3125 L 11.75 -0.09375 C 13.800781 1.582031 16.394531 2.898438 19.53125 3.859375 C 22.664062 4.828125 25.753906 5.3125 28.796875 5.3125 C 33.460938 5.3125 36.882812 4.285156 39.0625 2.234375 C 41.238281 0.179688 42.328125 -2.859375 42.328125 -6.890625 L 42.328125 -8.578125 C 38.898438 -4.597656 33.894531 -2.609375 27.3125 -2.609375 C 22.832031 -2.609375 18.695312 -3.617188 14.90625 -5.640625 C 11.125 -7.660156 8.113281 -10.519531 5.875 -14.21875 C 3.632812 -17.914062 2.515625 -22.1875 2.515625 -27.03125 C 2.515625 -31.820312 3.632812 -36.0625 5.875 -39.75 C 8.113281 -43.445312 11.125 -46.304688 14.90625 -48.328125 C 18.695312 -50.347656 22.832031 -51.359375 27.3125 -51.359375 C 34.519531 -51.359375 39.800781 -49.03125 43.15625 -44.375 L 43.15625 -50.53125 Z M 31.515625 -16.6875 C 34.679688 -16.6875 37.300781 -17.648438 39.375 -19.578125 C 41.457031 -21.503906 42.5 -23.988281 42.5 -27.03125 C 42.5 -30.070312 41.472656 -32.539062 39.421875 -34.4375 C 37.378906 -36.332031 34.742188 -37.28125 31.515625 -37.28125 C 28.273438 -37.28125 25.613281 -36.332031 23.53125 -34.4375 C 21.457031 -32.539062 20.421875 -30.070312 20.421875 -27.03125 C 20.421875 -23.988281 21.472656 -21.503906 23.578125 -19.578125 C 25.691406 -17.648438 28.335938 -16.6875 31.515625 -16.6875 Z M 31.515625 -16.6875 "/></g></g></g><g fill="#d9d9d9" fill-opacity="1"><g transform="translate(545.207996, 566.807668)"><g><path d="M 5.6875 -50.53125 L 23.390625 -50.53125 L 23.390625 0 L 5.6875 0 Z M 14.53125 -56.125 C 11.300781 -56.125 8.691406 -57.023438 6.703125 -58.828125 C 4.710938 -60.628906 3.71875 -62.863281 3.71875 -65.53125 C 3.71875 -68.207031 4.710938 -70.445312 6.703125 -72.25 C 8.691406 -74.050781 11.300781 -74.953125 14.53125 -74.953125 C 17.757812 -74.953125 20.367188 -74.097656 22.359375 -72.390625 C 24.347656 -70.679688 25.34375 -68.488281 25.34375 -65.8125 C 25.34375 -63.019531 24.347656 -60.707031 22.359375 -58.875 C 20.367188 -57.039062 17.757812 -56.125 14.53125 -56.125 Z M 14.53125 -56.125 "/></g></g></g><g fill="#d9d9d9" fill-opacity="1"><g transform="translate(574.376569, 566.807668)"><g><path d="M 24.046875 0.84375 C 19.828125 0.84375 15.664062 0.363281 11.5625 -0.59375 C 7.457031 -1.5625 4.160156 -2.820312 1.671875 -4.375 L 6.984375 -16.5 C 9.285156 -15.070312 12.019531 -13.9375 15.1875 -13.09375 C 18.363281 -12.257812 21.503906 -11.84375 24.609375 -11.84375 C 27.460938 -11.84375 29.492188 -12.132812 30.703125 -12.71875 C 31.921875 -13.3125 32.53125 -14.164062 32.53125 -15.28125 C 32.53125 -16.40625 31.800781 -17.195312 30.34375 -17.65625 C 28.882812 -18.125 26.566406 -18.578125 23.390625 -19.015625 C 19.359375 -19.515625 15.925781 -20.164062 13.09375 -20.96875 C 10.269531 -21.78125 7.832031 -23.273438 5.78125 -25.453125 C 3.726562 -27.628906 2.703125 -30.671875 2.703125 -34.578125 C 2.703125 -37.816406 3.664062 -40.691406 5.59375 -43.203125 C 7.519531 -45.722656 10.332031 -47.710938 14.03125 -49.171875 C 17.726562 -50.628906 22.15625 -51.359375 27.3125 -51.359375 C 30.976562 -51.359375 34.613281 -50.984375 38.21875 -50.234375 C 41.820312 -49.492188 44.835938 -48.441406 47.265625 -47.078125 L 41.953125 -35.046875 C 37.472656 -37.535156 32.625 -38.78125 27.40625 -38.78125 C 24.613281 -38.78125 22.5625 -38.453125 21.25 -37.796875 C 19.945312 -37.148438 19.296875 -36.296875 19.296875 -35.234375 C 19.296875 -34.054688 20.007812 -33.234375 21.4375 -32.765625 C 22.863281 -32.296875 25.226562 -31.816406 28.53125 -31.328125 C 32.6875 -30.703125 36.128906 -29.984375 38.859375 -29.171875 C 41.597656 -28.367188 43.976562 -26.894531 46 -24.75 C 48.019531 -22.601562 49.03125 -19.601562 49.03125 -15.75 C 49.03125 -12.582031 48.066406 -9.738281 46.140625 -7.21875 C 44.210938 -4.707031 41.367188 -2.734375 37.609375 -1.296875 C 33.847656 0.128906 29.328125 0.84375 24.046875 0.84375 Z M 24.046875 0.84375 "/></g></g></g><g fill="#d9d9d9" fill-opacity="1"><g transform="translate(138.127054, 567.201641)"><g><path d="M 18.890625 1.203125 C 14.597656 1.203125 10.976562 -0.222656 8.03125 -3.078125 C 5.09375 -5.941406 3.625 -9.5625 3.625 -13.9375 C 3.625 -18.40625 5.070312 -22.019531 7.96875 -24.78125 C 10.875 -27.550781 14.515625 -28.9375 18.890625 -28.9375 C 23.359375 -28.9375 27.019531 -27.550781 29.875 -24.78125 C 32.738281 -22.019531 34.171875 -18.40625 34.171875 -13.9375 C 34.171875 -9.5625 32.71875 -5.941406 29.8125 -3.078125 C 26.90625 -0.222656 23.265625 1.203125 18.890625 1.203125 Z M 18.890625 1.203125 "/></g></g></g><g fill="#d9d9d9" fill-opacity="1"><g transform="translate(176.027768, 567.201641)"><g><path d="M 39.125 -73.828125 C 51.1875 -73.828125 60.382812 -71.078125 66.71875 -65.578125 C 73.0625 -60.085938 76.234375 -51.671875 76.234375 -40.328125 L 76.234375 0 L 52.515625 0 L 52.515625 -9.375 C 48.859375 -2.320312 41.710938 1.203125 31.078125 1.203125 C 25.453125 1.203125 20.582031 0.222656 16.46875 -1.734375 C 12.363281 -3.703125 9.257812 -6.359375 7.15625 -9.703125 C 5.0625 -13.054688 4.015625 -16.878906 4.015625 -21.171875 C 4.015625 -28.046875 6.648438 -33.378906 11.921875 -37.171875 C 17.191406 -40.972656 25.320312 -42.875 36.3125 -42.875 L 50.78125 -42.875 C 50.332031 -50.550781 45.195312 -54.390625 35.375 -54.390625 C 31.882812 -54.390625 28.351562 -53.832031 24.78125 -52.71875 C 21.207031 -51.601562 18.171875 -50.0625 15.671875 -48.09375 L 7.09375 -65.390625 C 11.113281 -68.066406 16.003906 -70.140625 21.765625 -71.609375 C 27.535156 -73.085938 33.320312 -73.828125 39.125 -73.828125 Z M 38.1875 -14.875 C 41.132812 -14.875 43.722656 -15.585938 45.953125 -17.015625 C 48.191406 -18.441406 49.800781 -20.539062 50.78125 -23.3125 L 50.78125 -29.609375 L 39.796875 -29.609375 C 32.378906 -29.609375 28.671875 -27.148438 28.671875 -22.234375 C 28.671875 -20.003906 29.519531 -18.21875 31.21875 -16.875 C 32.914062 -15.539062 35.238281 -14.875 38.1875 -14.875 Z M 38.1875 -14.875 "/></g></g></g><g fill="#d9d9d9" fill-opacity="1"><g transform="translate(260.132502, 567.201641)"><g><path d="M 86.28125 -72.625 L 86.28125 -13.265625 C 86.28125 0.222656 82.617188 10.335938 75.296875 17.078125 C 67.972656 23.828125 57.429688 27.203125 43.671875 27.203125 C 36.523438 27.203125 29.828125 26.394531 23.578125 24.78125 C 17.328125 23.175781 12.015625 20.8125 7.640625 17.6875 L 16.875 -0.140625 C 19.820312 2.273438 23.550781 4.175781 28.0625 5.5625 C 32.570312 6.945312 37.019531 7.640625 41.40625 7.640625 C 48.101562 7.640625 53.015625 6.164062 56.140625 3.21875 C 59.265625 0.269531 60.828125 -4.109375 60.828125 -9.921875 L 60.828125 -12.328125 C 55.910156 -6.609375 48.71875 -3.75 39.25 -3.75 C 32.820312 -3.75 26.882812 -5.195312 21.4375 -8.09375 C 15.988281 -11 11.65625 -15.109375 8.4375 -20.421875 C 5.226562 -25.742188 3.625 -31.890625 3.625 -38.859375 C 3.625 -45.734375 5.226562 -51.828125 8.4375 -57.140625 C 11.65625 -62.453125 15.988281 -66.5625 21.4375 -69.46875 C 26.882812 -72.375 32.820312 -73.828125 39.25 -73.828125 C 49.613281 -73.828125 57.207031 -70.476562 62.03125 -63.78125 L 62.03125 -72.625 Z M 45.28125 -23.984375 C 49.84375 -23.984375 53.617188 -25.367188 56.609375 -28.140625 C 59.597656 -30.910156 61.09375 -34.484375 61.09375 -38.859375 C 61.09375 -43.234375 59.617188 -46.78125 56.671875 -49.5 C 53.722656 -52.226562 49.925781 -53.59375 45.28125 -53.59375 C 40.632812 -53.59375 36.816406 -52.226562 33.828125 -49.5 C 30.835938 -46.78125 29.34375 -43.234375 29.34375 -38.859375 C 29.34375 -34.484375 30.859375 -30.910156 33.890625 -28.140625 C 36.929688 -25.367188 40.726562 -23.984375 45.28125 -23.984375 Z M 45.28125 -23.984375 "/></g></g></g><g fill="#d9d9d9" fill-opacity="1"><g transform="translate(354.549422, 567.201641)"><g><path d="M 8.171875 -72.625 L 33.625 -72.625 L 33.625 0 L 8.171875 0 Z M 20.90625 -80.65625 C 16.257812 -80.65625 12.503906 -81.945312 9.640625 -84.53125 C 6.785156 -87.125 5.359375 -90.34375 5.359375 -94.1875 C 5.359375 -98.03125 6.785156 -101.242188 9.640625 -103.828125 C 12.503906 -106.421875 16.257812 -107.71875 20.90625 -107.71875 C 25.539062 -107.71875 29.285156 -106.488281 32.140625 -104.03125 C 35.003906 -101.582031 36.4375 -98.4375 36.4375 -94.59375 C 36.4375 -90.570312 35.003906 -87.242188 32.140625 -84.609375 C 29.285156 -81.972656 25.539062 -80.65625 20.90625 -80.65625 Z M 20.90625 -80.65625 "/></g></g></g><g clip-path="url(#527a3ae4e5)"><path fill="#feac02" d="M 314.59375 370.742188 L 405.492188 340.429688 L 314.71875 340.429688 C 310.769531 340.429688 307.570312 337.230469 307.570312 333.277344 C 307.570312 329.324219 310.769531 326.128906 314.71875 326.128906 L 411.082031 326.128906 C 417.65625 326.128906 423.203125 330.851562 424.292969 337.347656 C 425.378906 343.898438 421.585938 350.164062 415.269531 352.246094 L 318.976562 384.359375 C 317.394531 384.839844 316.027344 385.042969 314.714844 385.042969 C 310.765625 385.042969 307.5625 381.839844 307.5625 377.890625 C 307.570312 373.984375 310.710938 370.804688 314.59375 370.742188 Z M 414.445312 412.53125 C 414.289062 412.691406 398.230469 428.296875 366.960938 428.296875 C 340.242188 428.296875 324.644531 416.949219 320.523438 413.511719 L 415.378906 381.902344 C 419.121094 380.664062 421.144531 376.613281 419.90625 372.863281 C 418.648438 369.113281 414.609375 367.117188 410.855469 368.34375 L 314.566406 400.429688 C 310.152344 401.886719 306.769531 405.585938 305.722656 410.066406 C 304.660156 414.546875 306.03125 419.359375 309.269531 422.605469 C 310.078125 423.421875 329.503906 442.59375 366.960938 442.59375 C 404.359375 442.59375 423.785156 423.421875 424.59375 422.605469 C 427.363281 419.804688 427.335938 415.304688 424.554688 412.519531 C 421.765625 409.738281 417.238281 409.75 414.445312 412.53125 Z M 366.042969 88.402344 C 305.527344 88.402344 256.289062 137.613281 256.289062 198.105469 C 256.289062 228.679688 272.195312 252.320312 286.339844 273.363281 C 296.078125 287.765625 304.46875 300.207031 304.46875 310.539062 C 304.46875 314.492188 307.667969 317.6875 311.617188 317.6875 C 315.566406 317.6875 318.765625 314.488281 318.765625 310.539062 C 318.765625 295.828125 309.230469 281.703125 298.097656 265.207031 C 285.195312 246.039062 270.589844 224.3125 270.589844 198.105469 C 270.589844 145.5 313.410156 102.703125 366.042969 102.703125 C 418.648438 102.703125 461.441406 145.5 461.441406 198.105469 C 461.441406 224.355469 446.808594 246.09375 433.902344 265.261719 C 422.84375 281.640625 413.289062 295.792969 413.289062 310.539062 C 413.289062 314.492188 416.488281 317.6875 420.4375 317.6875 C 424.386719 317.6875 427.585938 314.488281 427.585938 310.539062 C 427.585938 300.160156 436.011719 287.699219 445.753906 273.253906 C 459.804688 252.382812 475.738281 228.726562 475.738281 198.105469 C 475.738281 137.613281 426.527344 88.402344 366.042969 88.402344 Z M 371.320312 134.640625 C 371.320312 130.6875 368.121094 127.492188 364.171875 127.492188 C 326.238281 127.492188 295.390625 158.347656 295.390625 196.277344 C 295.390625 200.234375 298.589844 203.429688 302.539062 203.429688 C 306.496094 203.429688 309.691406 200.226562 309.691406 196.277344 C 309.691406 166.230469 334.132812 141.792969 364.171875 141.792969 C 368.121094 141.789062 371.320312 138.59375 371.320312 134.640625 Z M 242.824219 198.105469 C 242.824219 194.152344 239.625 190.957031 235.675781 190.957031 L 190.171875 190.957031 C 186.21875 190.957031 183.023438 194.152344 183.023438 198.105469 C 183.023438 202.0625 186.21875 205.257812 190.171875 205.257812 L 235.675781 205.257812 C 239.625 205.257812 242.824219 202.0625 242.824219 198.105469 Z M 541.871094 190.957031 L 496.351562 190.957031 C 492.398438 190.957031 489.203125 194.152344 489.203125 198.105469 C 489.203125 202.0625 492.398438 205.257812 496.351562 205.257812 L 541.871094 205.257812 C 545.824219 205.257812 549.019531 202.054688 549.019531 198.105469 C 549.019531 194.152344 545.820312 190.957031 541.871094 190.957031 Z M 263.40625 113.335938 C 264.679688 114.257812 266.148438 114.699219 267.613281 114.699219 C 269.820312 114.699219 271.996094 113.679688 273.394531 111.75 C 275.714844 108.554688 275.015625 104.082031 271.820312 101.757812 L 235.007812 75.019531 C 231.820312 72.707031 227.335938 73.390625 225.023438 76.601562 C 222.703125 79.804688 223.402344 84.273438 226.601562 86.597656 Z M 263.40625 282.917969 L 226.59375 309.65625 C 223.394531 311.984375 222.699219 316.453125 225.011719 319.652344 C 226.414062 321.578125 228.589844 322.597656 230.796875 322.597656 C 232.261719 322.597656 233.730469 322.15625 234.996094 321.234375 L 271.8125 294.496094 C 275.011719 292.171875 275.707031 287.703125 273.386719 284.503906 C 271.0625 281.285156 266.59375 280.617188 263.40625 282.917969 Z M 464.429688 114.699219 C 465.894531 114.699219 467.363281 114.261719 468.636719 113.335938 L 505.449219 86.601562 C 508.648438 84.277344 509.34375 79.808594 507.027344 76.609375 C 504.707031 73.394531 500.226562 72.710938 497.042969 75.023438 L 460.230469 101.761719 C 457.03125 104.085938 456.335938 108.554688 458.652344 111.753906 C 460.046875 113.679688 462.222656 114.699219 464.429688 114.699219 Z M 468.636719 282.917969 C 465.464844 280.613281 460.980469 281.285156 458.652344 284.503906 C 456.332031 287.703125 457.03125 292.171875 460.230469 294.496094 L 497.042969 321.234375 C 498.3125 322.15625 499.777344 322.597656 501.246094 322.597656 C 503.453125 322.597656 505.628906 321.578125 507.027344 319.652344 C 509.347656 316.453125 508.648438 311.984375 505.449219 309.65625 Z M 468.636719 282.917969 " fill-opacity="1" fill-rule="nonzero"/></g><g fill="#feac02" fill-opacity="1"><g transform="translate(292.693121, 238.241971)"><g><path d="M 10.75 0.6875 C 8.3125 0.6875 6.253906 -0.125 4.578125 -1.75 C 2.898438 -3.375 2.0625 -5.4375 2.0625 -7.9375 C 2.0625 -10.476562 2.882812 -12.535156 4.53125 -14.109375 C 6.1875 -15.679688 8.257812 -16.46875 10.75 -16.46875 C 13.289062 -16.46875 15.375 -15.679688 17 -14.109375 C 18.625 -12.535156 19.4375 -10.476562 19.4375 -7.9375 C 19.4375 -5.4375 18.609375 -3.375 16.953125 -1.75 C 15.304688 -0.125 13.238281 0.6875 10.75 0.6875 Z M 10.75 0.6875 "/></g></g></g><g fill="#feac02" fill-opacity="1"><g transform="translate(314.267145, 238.241971)"><g><path d="M 22.265625 -42.015625 C 29.128906 -42.015625 34.363281 -40.453125 37.96875 -37.328125 C 41.582031 -34.203125 43.390625 -29.410156 43.390625 -22.953125 L 43.390625 0 L 29.890625 0 L 29.890625 -5.34375 C 27.804688 -1.320312 23.738281 0.6875 17.6875 0.6875 C 14.488281 0.6875 11.71875 0.128906 9.375 -0.984375 C 7.039062 -2.109375 5.273438 -3.625 4.078125 -5.53125 C 2.878906 -7.4375 2.28125 -9.609375 2.28125 -12.046875 C 2.28125 -15.960938 3.78125 -19 6.78125 -21.15625 C 9.78125 -23.320312 14.40625 -24.40625 20.65625 -24.40625 L 28.90625 -24.40625 C 28.644531 -28.769531 25.71875 -30.953125 20.125 -30.953125 C 18.144531 -30.953125 16.140625 -30.632812 14.109375 -30 C 12.078125 -29.363281 10.347656 -28.488281 8.921875 -27.375 L 4.046875 -37.203125 C 6.328125 -38.734375 9.109375 -39.914062 12.390625 -40.75 C 15.671875 -41.59375 18.960938 -42.015625 22.265625 -42.015625 Z M 21.734375 -8.46875 C 23.410156 -8.46875 24.882812 -8.875 26.15625 -9.6875 C 27.425781 -10.5 28.34375 -11.691406 28.90625 -13.265625 L 28.90625 -16.84375 L 22.640625 -16.84375 C 18.421875 -16.84375 16.3125 -15.445312 16.3125 -12.65625 C 16.3125 -11.382812 16.796875 -10.367188 17.765625 -9.609375 C 18.734375 -8.847656 20.054688 -8.46875 21.734375 -8.46875 Z M 21.734375 -8.46875 "/></g></g></g><g fill="#feac02" fill-opacity="1"><g transform="translate(362.141613, 238.241971)"><g><path d="M 49.109375 -41.328125 L 49.109375 -7.546875 C 49.109375 0.128906 47.019531 5.882812 42.84375 9.71875 C 38.675781 13.5625 32.679688 15.484375 24.859375 15.484375 C 20.785156 15.484375 16.96875 15.023438 13.40625 14.109375 C 9.851562 13.191406 6.832031 11.84375 4.34375 10.0625 L 9.609375 -0.078125 C 11.285156 1.296875 13.40625 2.375 15.96875 3.15625 C 18.539062 3.945312 21.070312 4.34375 23.5625 4.34375 C 27.375 4.34375 30.171875 3.503906 31.953125 1.828125 C 33.734375 0.148438 34.625 -2.335938 34.625 -5.640625 L 34.625 -7.015625 C 31.820312 -3.765625 27.726562 -2.140625 22.34375 -2.140625 C 18.675781 -2.140625 15.289062 -2.960938 12.1875 -4.609375 C 9.09375 -6.265625 6.628906 -8.601562 4.796875 -11.625 C 2.972656 -14.65625 2.0625 -18.148438 2.0625 -22.109375 C 2.0625 -26.023438 2.972656 -29.492188 4.796875 -32.515625 C 6.628906 -35.546875 9.09375 -37.882812 12.1875 -39.53125 C 15.289062 -41.1875 18.675781 -42.015625 22.34375 -42.015625 C 28.238281 -42.015625 32.554688 -40.109375 35.296875 -36.296875 L 35.296875 -41.328125 Z M 25.765625 -13.65625 C 28.359375 -13.65625 30.503906 -14.441406 32.203125 -16.015625 C 33.910156 -17.585938 34.765625 -19.617188 34.765625 -22.109375 C 34.765625 -24.597656 33.925781 -26.617188 32.25 -28.171875 C 30.570312 -29.722656 28.410156 -30.5 25.765625 -30.5 C 23.128906 -30.5 20.957031 -29.722656 19.25 -28.171875 C 17.550781 -26.617188 16.703125 -24.597656 16.703125 -22.109375 C 16.703125 -19.617188 17.566406 -17.585938 19.296875 -16.015625 C 21.023438 -14.441406 23.179688 -13.65625 25.765625 -13.65625 Z M 25.765625 -13.65625 "/></g></g></g><g fill="#feac02" fill-opacity="1"><g transform="translate(415.886064, 238.241971)"><g><path d="M 4.65625 -41.328125 L 19.140625 -41.328125 L 19.140625 0 L 4.65625 0 Z M 11.890625 -45.90625 C 9.242188 -45.90625 7.109375 -46.640625 5.484375 -48.109375 C 3.859375 -49.585938 3.046875 -51.421875 3.046875 -53.609375 C 3.046875 -55.785156 3.859375 -57.613281 5.484375 -59.09375 C 7.109375 -60.570312 9.242188 -61.3125 11.890625 -61.3125 C 14.535156 -61.3125 16.671875 -60.609375 18.296875 -59.203125 C 19.921875 -57.804688 20.734375 -56.015625 20.734375 -53.828125 C 20.734375 -51.546875 19.921875 -49.65625 18.296875 -48.15625 C 16.671875 -46.65625 14.535156 -45.90625 11.890625 -45.90625 Z M 11.890625 -45.90625 "/></g></g></g></svg>
