<svg xmlns="http://www.w3.org/2000/svg" xmlns:xlink="http://www.w3.org/1999/xlink" width="500" zoomAndPan="magnify" viewBox="0 0 375 374.999991" height="500" preserveAspectRatio="xMidYMid meet" version="1.0"><defs><g/></defs><g fill="#feac02" fill-opacity="1"><g transform="translate(0.0350864, 219.464755)"><g><path d="M 26.25 1.671875 C 20.289062 1.671875 15.265625 -0.3125 11.171875 -4.28125 C 7.078125 -8.25 5.03125 -13.273438 5.03125 -19.359375 C 5.03125 -25.566406 7.046875 -30.59375 11.078125 -34.4375 C 15.109375 -38.289062 20.164062 -40.21875 26.25 -40.21875 C 32.457031 -40.21875 37.546875 -38.289062 41.515625 -34.4375 C 45.492188 -30.59375 47.484375 -25.566406 47.484375 -19.359375 C 47.484375 -13.273438 45.460938 -8.25 41.421875 -4.28125 C 37.390625 -0.3125 32.332031 1.671875 26.25 1.671875 Z M 26.25 1.671875 "/></g></g></g><g fill="#feac02" fill-opacity="1"><g transform="translate(52.701773, 219.464755)"><g><path d="M 54.359375 -102.59375 C 71.117188 -102.59375 83.90625 -98.773438 92.71875 -91.140625 C 101.53125 -83.503906 105.9375 -71.804688 105.9375 -56.046875 L 105.9375 0 L 72.984375 0 L 72.984375 -13.03125 C 67.898438 -3.226562 57.972656 1.671875 43.203125 1.671875 C 35.378906 1.671875 28.613281 0.304688 22.90625 -2.421875 C 17.195312 -5.148438 12.878906 -8.84375 9.953125 -13.5 C 7.035156 -18.15625 5.578125 -23.460938 5.578125 -29.421875 C 5.578125 -38.972656 9.238281 -46.382812 16.5625 -51.65625 C 23.894531 -56.9375 35.191406 -59.578125 50.453125 -59.578125 L 70.5625 -59.578125 C 69.945312 -70.253906 62.8125 -75.59375 49.15625 -75.59375 C 44.3125 -75.59375 39.40625 -74.816406 34.4375 -73.265625 C 29.476562 -71.710938 25.257812 -69.570312 21.78125 -66.84375 L 9.875 -90.859375 C 15.457031 -94.578125 22.25 -97.460938 30.25 -99.515625 C 38.257812 -101.566406 46.296875 -102.59375 54.359375 -102.59375 Z M 53.0625 -20.671875 C 57.15625 -20.671875 60.753906 -21.660156 63.859375 -23.640625 C 66.960938 -25.628906 69.195312 -28.546875 70.5625 -32.390625 L 70.5625 -41.140625 L 55.296875 -41.140625 C 44.992188 -41.140625 39.84375 -37.726562 39.84375 -30.90625 C 39.84375 -27.800781 41.019531 -25.316406 43.375 -23.453125 C 45.738281 -21.597656 48.96875 -20.671875 53.0625 -20.671875 Z M 53.0625 -20.671875 "/></g></g></g><g fill="#feac02" fill-opacity="1"><g transform="translate(169.573388, 219.464755)"><g><path d="M 119.90625 -100.90625 L 119.90625 -18.4375 C 119.90625 0.3125 114.816406 14.367188 104.640625 23.734375 C 94.460938 33.109375 79.816406 37.796875 60.703125 37.796875 C 50.765625 37.796875 41.453125 36.675781 32.765625 34.4375 C 24.078125 32.207031 16.691406 28.921875 10.609375 24.578125 L 23.453125 -0.1875 C 27.554688 3.164062 32.738281 5.800781 39 7.71875 C 45.269531 9.644531 51.445312 10.609375 57.53125 10.609375 C 66.84375 10.609375 73.671875 8.5625 78.015625 4.46875 C 82.359375 0.375 84.53125 -5.707031 84.53125 -13.78125 L 84.53125 -17.125 C 77.695312 -9.1875 67.703125 -5.21875 54.546875 -5.21875 C 45.609375 -5.21875 37.351562 -7.234375 29.78125 -11.265625 C 22.21875 -15.296875 16.203125 -21.003906 11.734375 -28.390625 C 7.265625 -35.773438 5.03125 -44.3125 5.03125 -54 C 5.03125 -63.550781 7.265625 -72.019531 11.734375 -79.40625 C 16.203125 -86.789062 22.21875 -92.5 29.78125 -96.53125 C 37.351562 -100.570312 45.609375 -102.59375 54.546875 -102.59375 C 68.953125 -102.59375 79.503906 -97.9375 86.203125 -88.625 L 86.203125 -100.90625 Z M 62.9375 -33.328125 C 69.257812 -33.328125 74.5 -35.25 78.65625 -39.09375 C 82.820312 -42.945312 84.90625 -47.914062 84.90625 -54 C 84.90625 -60.082031 82.851562 -65.015625 78.75 -68.796875 C 74.65625 -72.578125 69.382812 -74.46875 62.9375 -74.46875 C 56.476562 -74.46875 51.171875 -72.578125 47.015625 -68.796875 C 42.859375 -65.015625 40.78125 -60.082031 40.78125 -54 C 40.78125 -47.914062 42.890625 -42.945312 47.109375 -39.09375 C 51.328125 -35.25 56.601562 -33.328125 62.9375 -33.328125 Z M 62.9375 -33.328125 "/></g></g></g><g fill="#feac02" fill-opacity="1"><g transform="translate(300.774777, 219.464755)"><g><path d="M 11.359375 -100.90625 L 46.734375 -100.90625 L 46.734375 0 L 11.359375 0 Z M 29.046875 -112.078125 C 22.597656 -112.078125 17.382812 -113.878906 13.40625 -117.484375 C 9.4375 -121.085938 7.453125 -125.554688 7.453125 -130.890625 C 7.453125 -136.222656 9.4375 -140.6875 13.40625 -144.28125 C 17.382812 -147.882812 22.597656 -149.6875 29.046875 -149.6875 C 35.503906 -149.6875 40.71875 -147.976562 44.6875 -144.5625 C 48.65625 -141.15625 50.640625 -136.785156 50.640625 -131.453125 C 50.640625 -125.859375 48.65625 -121.226562 44.6875 -117.5625 C 40.71875 -113.90625 35.503906 -112.078125 29.046875 -112.078125 Z M 29.046875 -112.078125 "/></g></g></g><g fill="#feac02" fill-opacity="1"><g transform="translate(92.239182, 251.466392)"><g><path d="M 1.8125 -22.09375 L 7.46875 -22.09375 L 7.46875 0 L 1.8125 0 Z M 1.8125 -22.09375 "/></g></g></g><g fill="#feac02" fill-opacity="1"><g transform="translate(101.55936, 251.466392)"><g><path d="M 18.3125 -8.046875 C 18.3125 -8.003906 18.28125 -7.535156 18.21875 -6.640625 L 6.5 -6.640625 C 6.726562 -5.804688 7.1875 -5.164062 7.875 -4.71875 C 8.5625 -4.269531 9.421875 -4.046875 10.453125 -4.046875 C 11.222656 -4.046875 11.890625 -4.15625 12.453125 -4.375 C 13.023438 -4.59375 13.597656 -4.953125 14.171875 -5.453125 L 17.15625 -2.359375 C 15.582031 -0.609375 13.289062 0.265625 10.28125 0.265625 C 8.394531 0.265625 6.734375 -0.0859375 5.296875 -0.796875 C 3.867188 -1.515625 2.757812 -2.507812 1.96875 -3.78125 C 1.1875 -5.050781 0.796875 -6.488281 0.796875 -8.09375 C 0.796875 -9.6875 1.175781 -11.113281 1.9375 -12.375 C 2.707031 -13.632812 3.765625 -14.617188 5.109375 -15.328125 C 6.460938 -16.046875 7.984375 -16.40625 9.671875 -16.40625 C 11.285156 -16.40625 12.742188 -16.070312 14.046875 -15.40625 C 15.359375 -14.75 16.394531 -13.785156 17.15625 -12.515625 C 17.925781 -11.253906 18.3125 -9.765625 18.3125 -8.046875 Z M 9.703125 -12.390625 C 8.828125 -12.390625 8.097656 -12.140625 7.515625 -11.640625 C 6.929688 -11.148438 6.5625 -10.476562 6.40625 -9.625 L 13.015625 -9.625 C 12.859375 -10.476562 12.484375 -11.148438 11.890625 -11.640625 C 11.304688 -12.140625 10.578125 -12.390625 9.703125 -12.390625 Z M 9.703125 -12.390625 "/></g></g></g><g fill="#feac02" fill-opacity="1"><g transform="translate(120.676143, 251.466392)"><g><path d="M 19.171875 -16.140625 L 19.171875 -2.953125 C 19.171875 0.046875 18.359375 2.296875 16.734375 3.796875 C 15.109375 5.296875 12.765625 6.046875 9.703125 6.046875 C 8.117188 6.046875 6.628906 5.863281 5.234375 5.5 C 3.847656 5.144531 2.671875 4.625 1.703125 3.9375 L 3.75 -0.03125 C 4.40625 0.507812 5.234375 0.929688 6.234375 1.234375 C 7.242188 1.546875 8.234375 1.703125 9.203125 1.703125 C 10.691406 1.703125 11.78125 1.375 12.46875 0.71875 C 13.164062 0.0625 13.515625 -0.910156 13.515625 -2.203125 L 13.515625 -2.734375 C 12.421875 -1.460938 10.820312 -0.828125 8.71875 -0.828125 C 7.289062 -0.828125 5.972656 -1.148438 4.765625 -1.796875 C 3.554688 -2.441406 2.59375 -3.351562 1.875 -4.53125 C 1.15625 -5.71875 0.796875 -7.085938 0.796875 -8.640625 C 0.796875 -10.171875 1.15625 -11.523438 1.875 -12.703125 C 2.59375 -13.878906 3.554688 -14.789062 4.765625 -15.4375 C 5.972656 -16.082031 7.289062 -16.40625 8.71875 -16.40625 C 11.03125 -16.40625 12.71875 -15.660156 13.78125 -14.171875 L 13.78125 -16.140625 Z M 10.0625 -5.328125 C 11.070312 -5.328125 11.910156 -5.632812 12.578125 -6.25 C 13.242188 -6.863281 13.578125 -7.660156 13.578125 -8.640625 C 13.578125 -9.609375 13.25 -10.394531 12.59375 -11 C 11.9375 -11.601562 11.09375 -11.90625 10.0625 -11.90625 C 9.03125 -11.90625 8.179688 -11.601562 7.515625 -11 C 6.847656 -10.394531 6.515625 -9.609375 6.515625 -8.640625 C 6.515625 -7.660156 6.851562 -6.863281 7.53125 -6.25 C 8.207031 -5.632812 9.050781 -5.328125 10.0625 -5.328125 Z M 10.0625 -5.328125 "/></g></g></g><g fill="#feac02" fill-opacity="1"><g transform="translate(141.668883, 251.466392)"><g><path d="M 1.8125 -16.140625 L 7.46875 -16.140625 L 7.46875 0 L 1.8125 0 Z M 4.640625 -17.921875 C 3.609375 -17.921875 2.773438 -18.207031 2.140625 -18.78125 C 1.503906 -19.363281 1.1875 -20.082031 1.1875 -20.9375 C 1.1875 -21.789062 1.503906 -22.503906 2.140625 -23.078125 C 2.773438 -23.648438 3.609375 -23.9375 4.640625 -23.9375 C 5.671875 -23.9375 6.503906 -23.664062 7.140625 -23.125 C 7.773438 -22.582031 8.09375 -21.882812 8.09375 -21.03125 C 8.09375 -20.132812 7.773438 -19.390625 7.140625 -18.796875 C 6.503906 -18.210938 5.671875 -17.921875 4.640625 -17.921875 Z M 4.640625 -17.921875 "/></g></g></g><g fill="#feac02" fill-opacity="1"><g transform="translate(150.989061, 251.466392)"><g><path d="M 7.6875 0.265625 C 6.332031 0.265625 5 0.113281 3.6875 -0.1875 C 2.382812 -0.5 1.332031 -0.90625 0.53125 -1.40625 L 2.234375 -5.265625 C 2.960938 -4.816406 3.832031 -4.457031 4.84375 -4.1875 C 5.863281 -3.914062 6.867188 -3.78125 7.859375 -3.78125 C 8.773438 -3.78125 9.425781 -3.875 9.8125 -4.0625 C 10.195312 -4.25 10.390625 -4.523438 10.390625 -4.890625 C 10.390625 -5.242188 10.15625 -5.492188 9.6875 -5.640625 C 9.226562 -5.785156 8.488281 -5.929688 7.46875 -6.078125 C 6.1875 -6.234375 5.09375 -6.441406 4.1875 -6.703125 C 3.28125 -6.960938 2.5 -7.4375 1.84375 -8.125 C 1.1875 -8.820312 0.859375 -9.796875 0.859375 -11.046875 C 0.859375 -12.078125 1.164062 -12.992188 1.78125 -13.796875 C 2.394531 -14.609375 3.289062 -15.242188 4.46875 -15.703125 C 5.65625 -16.171875 7.070312 -16.40625 8.71875 -16.40625 C 9.894531 -16.40625 11.054688 -16.285156 12.203125 -16.046875 C 13.359375 -15.804688 14.320312 -15.472656 15.09375 -15.046875 L 13.40625 -11.203125 C 11.96875 -11.992188 10.414062 -12.390625 8.75 -12.390625 C 7.863281 -12.390625 7.210938 -12.285156 6.796875 -12.078125 C 6.378906 -11.867188 6.171875 -11.59375 6.171875 -11.25 C 6.171875 -10.875 6.394531 -10.613281 6.84375 -10.46875 C 7.300781 -10.320312 8.054688 -10.164062 9.109375 -10 C 10.441406 -9.800781 11.546875 -9.570312 12.421875 -9.3125 C 13.296875 -9.0625 14.054688 -8.59375 14.703125 -7.90625 C 15.347656 -7.21875 15.671875 -6.257812 15.671875 -5.03125 C 15.671875 -4.019531 15.359375 -3.113281 14.734375 -2.3125 C 14.117188 -1.507812 13.210938 -0.878906 12.015625 -0.421875 C 10.816406 0.0351562 9.375 0.265625 7.6875 0.265625 Z M 7.6875 0.265625 "/></g></g></g></svg>
